<svg xmlns="http://www.w3.org/2000/svg" viewBox="0 0 376.51 28.8"><style>.st2{fill:#fff;stroke:#fff;stroke-width:.2}.st3{fill:#ffcd34}</style><path d="M288.75 14.39v5.38c0 .76.44.82 2.22.82 2.42 0 3.8-.06 4.88-2.64h.48l-.82 3.34h-10.16v-.38c1.42 0 1.84-.52 1.84-2.52v-8.2c0-1.98-.42-2.52-1.84-2.52v-.39h9.92l.12 3.14h-.44c-.48-2.08-.92-2.44-3.08-2.44h-2.42c-.46 0-.7.1-.7.72v4.96h2.02c2.46 0 3.06-.46 3.12-1.84h.44v4.4h-.44c-.08-1.36-.64-1.84-3.12-1.84h-2.02zM302.85 16.73l-2.12 2.8c-.58.76-.32 1.38.56 1.38v.38h-3.56v-.38c.88 0 1.58-.62 2.16-1.38l2.58-3.4-2.26-3.64c-.5-.82-1.28-1.38-2.16-1.38v-.38h4.38v.38c-.88 0-1.06.56-.56 1.38l1.5 2.44 1.86-2.44c.58-.76.36-1.38-.52-1.38v-.38h3.56v.38c-.88 0-1.62.62-2.2 1.38l-2.32 3.04 2.5 4c.5.82 1.2 1.38 2.08 1.38v.38h-4.38v-.38c.88 0 1.14-.56.64-1.38l-1.74-2.8zM317.93 10.73l.08 2.72h-.36c-.32-1.74-.76-2.04-3.04-2.04v8.12c0 .96.48 1.38 1.36 1.38v.38h-4.2v-.38c.88 0 1.36-.42 1.36-1.38v-8.12c-2.28 0-2.72.3-3.04 2.04h-.36l.08-2.72h8.12zM328.53 18.55l-.68 2.74h-7.84v-.38c.9 0 1.3-.42 1.3-1.38v-7.04c0-.96-.4-1.38-1.3-1.38v-.38h7.64l.1 2.38h-.36c-.28-1.18-.72-1.7-1.98-1.7h-2.04c-.32 0-.58.08-.58.48v3.56h2.36c.8 0 1.32-.5 1.38-1.52h.38v3.64h-.34c-.14-.94-.62-1.44-1.5-1.44h-2.28v3.76c0 .5.28.72.88.72h1.68c1.68 0 2.28-.96 2.74-2.06h.44zM340.09 10.73v.38c-.82 0-1.38.5-1.38 1.84v8.52h-.2l-6.32-8.56v6.5c0 .96.5 1.5 1.32 1.5v.38h-3.38v-.38c.96 0 1.38-.62 1.38-1.84v-7.08l-.32-.42c-.18-.24-.56-.46-1.04-.46v-.38h2.4l5.48 7.54v-5.56c0-.96-.5-1.6-1.32-1.6v-.38h3.38zM347.21 10.51l.3 3.48h-.38c-.54-1.72-1.42-2.76-2.68-2.76-.9 0-1.42.6-1.42 1.42 0 .94.68 1.48 1.54 2.06l1.7 1.16c.78.54 1.54 1.52 1.54 2.66 0 1.72-1.3 2.98-3 2.98-1.04 0-1.7-.52-2.22-.52-.28 0-.42.3-.5.52h-.36l-.44-3.5h.4c.64 1.8 1.58 2.84 2.9 2.84 1 0 1.74-.66 1.74-1.78 0-1-.54-1.48-1.16-1.92l-2.08-1.46c-.82-.56-1.32-1.3-1.32-2.52 0-1.46.96-2.66 2.6-2.66.72 0 1.52.46 1.96.46.32 0 .46-.22.48-.46h.4zM352.45 19.53c0 .96.48 1.38 1.36 1.38v.38h-4.2v-.38c.88 0 1.36-.42 1.36-1.38v-7.04c0-.96-.48-1.38-1.36-1.38v-.38h4.2v.38c-.88 0-1.36.42-1.36 1.38v7.04zM364.85 15.99c0 3.34-2.1 5.48-4.72 5.48-2.6 0-4.72-2.14-4.72-5.48 0-3.32 2.12-5.46 4.72-5.46 2.62 0 4.72 2.14 4.72 5.46zm-1.6 0c0-2.94-1.14-4.84-3.12-4.84-1.98 0-3.1 1.9-3.1 4.84 0 2.96 1.12 4.86 3.1 4.86s3.12-1.9 3.12-4.86zM376.41 10.73v.38c-.82 0-1.38.5-1.38 1.84v8.52h-.2l-6.32-8.56v6.5c0 .96.5 1.5 1.32 1.5v.38h-3.38v-.38c.96 0 1.38-.62 1.38-1.84v-7.08l-.32-.42c-.18-.24-.56-.46-1.04-.46v-.38h2.4l5.48 7.54v-5.56c0-.96-.5-1.6-1.32-1.6v-.38h3.38zM269.99 10.73l.08 2.72h-.36c-.33-1.74-.75-2.03-3.05-2.03v8.12c0 .95.49 1.37 1.37 1.37v.38h-4.25v-.38c.89 0 1.37-.42 1.37-1.37v-8.12c-2.29 0-2.72.29-3.05 2.03h-.35l.08-2.72h8.16zM255.88 10.52c-2.61 0-4.72 2.14-4.72 5.47 0 3.33 2.11 5.47 4.72 5.47s4.72-2.14 4.72-5.47c0-3.32-2.11-5.47-4.72-5.47zm0 10.33c-1.98 0-3.11-1.9-3.11-4.85 0-2.95 1.13-4.85 3.11-4.85s3.11 1.9 3.11 4.85c.01 2.95-1.13 4.85-3.11 4.85zM278.24 19.99c-.19-.49-3.74-9.41-3.74-9.41h-.35s-3.13 8.18-3.51 9.14c-.38.96-.85 1.2-1.22 1.2v.38h2.88v-.38c-.42 0-.9-.3-.9-.76 0-.14.01-.3.05-.4.02-.08.32-.88.7-1.91h3.66c.37 1.02.66 1.8.67 1.84.05.14.11.33.11.47 0 .41-.33.76-.95.76v.38h3.71v-.38c-.45-.01-.92-.44-1.11-.93zm-5.82-2.88c.71-1.94 1.56-4.23 1.56-4.23s.85 2.3 1.55 4.23h-3.11zM240.65 18.55c-.47 1.1-1.07 2.06-2.75 2.06h-1.67c-.61 0-.88-.21-.88-.71v-3.76h2.27c.88 0 1.35.5 1.49 1.43h.35v-3.65h-.38c-.06 1.01-.58 1.51-1.38 1.51h-2.36V11.9c0-.39.25-.47.58-.47h2.03c1.26 0 1.7.52 1.97 1.7h.36l-.08-2.39h-7.6v.39c.88 0 1.29.42 1.29 1.37v7.05c0 .95-.4 1.37-1.29 1.37v.38h7.8l.68-2.74h-.43zM248.69 10.51l.3 3.48h-.38c-.52-1.72-1.4-2.77-2.66-2.77-.9 0-1.43.61-1.43 1.43 0 .93.69 1.48 1.54 2.06.85.57 1.42.96 1.7 1.15.79.55 1.54 1.54 1.54 2.66 0 1.72-1.29 2.99-2.99 2.99-1.04 0-1.7-.52-2.23-.52-.29 0-.43.29-.49.52h-.36l-.44-3.51h.38c.65 1.8 1.59 2.85 2.91 2.85.99 0 1.73-.68 1.73-1.78 0-1-.53-1.48-1.15-1.92-.7-.49-1.56-1.1-2.08-1.45-.82-.55-1.32-1.31-1.32-2.52 0-1.45.96-2.66 2.61-2.66.71 0 1.51.46 1.95.46.33 0 .47-.22.49-.46h.38zM227.7 10.73v.39c.82 0 1.31.63 1.31 1.59v5.56l-5.49-7.53h-2.39v.39c.47 0 .85.22 1.04.47.02.03.13.18.3.41v7.09c0 1.21-.41 1.84-1.37 1.84v.38h3.38v-.38c-.83 0-1.32-.55-1.32-1.51v-6.49c2 2.7 6.31 8.55 6.31 8.55h.23v-8.51c0-1.35.55-1.84 1.37-1.84v-.39h-3.37zM215.98 10.73v.39c.82 0 1.31.63 1.31 1.59v5.56l-5.49-7.53h-2.39v.39c.47 0 .85.22 1.04.47.02.03.13.18.31.41v7.09c0 1.21-.41 1.84-1.37 1.84v.38h3.37v-.38c-.82 0-1.32-.55-1.32-1.51v-6.49c2 2.7 6.31 8.55 6.31 8.55h.22v-8.51c0-1.35.55-1.84 1.37-1.84v-.39h-3.36zM201.81 7.68V7.3h-3.27l-4.26 11.42-4.27-11.42h-3.32v.38c1.4 0 1.78.77 1.78 2.14v8.59c0 1.99-.56 2.5-1.81 2.5v.38h4.31v-.38c-1.2 0-1.78-.52-1.78-2.5V9.44l4.44 11.89h.42l4.53-12.1v9.19c0 1.99-.45 2.5-1.7 2.5v.38h4.94v-.38c-1.21 0-1.67-.52-1.67-2.5V9.64c-.01-1.6.84-1.96 1.66-1.96zM205.85 12.48c0-.95.49-1.37 1.37-1.37v-.39h-4.26v.39c.89 0 1.37.42 1.37 1.37v7.05c0 .95-.48 1.37-1.37 1.37v.38h4.26v-.38c-.89 0-1.37-.42-1.37-1.37v-7.05zM166.89 10.54c-2.61 0-4.72 2.14-4.72 5.47 0 3.33 2.11 5.47 4.72 5.47 2.6 0 4.72-2.14 4.72-5.47 0-3.33-2.12-5.47-4.72-5.47zm0 10.32c-1.98 0-3.11-1.9-3.11-4.85 0-2.95 1.13-4.85 3.11-4.85s3.11 1.9 3.11 4.85c0 2.95-1.13 4.85-3.11 4.85zM180.76 10.73h-7.68v.39c.88 0 1.29.42 1.29 1.37v7.05c0 .95-.4 1.37-1.29 1.37v.38h4.09v-.38c-.85 0-1.34-.41-1.34-1.37v-3.4h2.19c.88 0 1.35.5 1.49 1.43h.35v-3.65h-.38c-.06 1.01-.58 1.51-1.37 1.51h-2.28V11.9c0-.39.25-.47.57-.47h2.12c1.26 0 1.7.52 1.98 1.7h.35l-.09-2.4zM145.48 10.74l.08 2.71h-.36c-.33-1.74-.75-2.03-3.05-2.03v8.12c0 .95.49 1.37 1.37 1.37v.38h-4.25v-.38c.89 0 1.37-.42 1.37-1.37v-8.12c-2.29 0-2.71.29-3.05 2.03h-.36l.08-2.71h8.17zM153.63 11.12v-.38h3.24v.38c-.46 0-1.2.51-1.51 1.02-.34.56-2.61 4.33-2.61 4.33v3.07c0 1.03.38 1.37 1.48 1.37v.38h-4.47v-.38c1.11 0 1.48-.35 1.48-1.37v-2.91s-2.5-3.98-2.8-4.48c-.3-.49-.9-1.04-1.48-1.04v-.38h4.17v.38c-.58 0-.99.26-.99.56 0 .2.1.43.17.55.07.13 2.12 3.49 2.12 3.49s2.03-3.52 2.08-3.62c.06-.1.08-.22.08-.34 0-.28-.16-.63-.96-.63zM128.63 10.51l.3 3.48h-.38c-.52-1.72-1.4-2.77-2.66-2.77-.9 0-1.43.61-1.43 1.43 0 .93.69 1.48 1.54 2.06.85.57 1.43.96 1.7 1.15.79.55 1.54 1.54 1.54 2.66 0 1.72-1.29 2.99-2.99 2.99-1.05 0-1.7-.52-2.22-.52-.29 0-.42.29-.49.52h-.35l-.46-3.51h.38c.64 1.8 1.59 2.85 2.91 2.85.99 0 1.73-.68 1.73-1.78 0-1-.53-1.48-1.15-1.92-.7-.49-1.56-1.1-2.09-1.45-.82-.55-1.31-1.31-1.31-2.52 0-1.45.95-2.66 2.6-2.66.72 0 1.51.46 1.95.46.33 0 .46-.22.49-.46h.39zM134.45 12.5c0-.95.49-1.38 1.37-1.38v-.38h-4.25v.38c.89 0 1.37.42 1.37 1.38v7.05c0 .95-.49 1.37-1.37 1.37v.38h4.25v-.38c-.88 0-1.37-.42-1.37-1.37V12.5zM110.24 18.55c-.47 1.1-1.07 2.06-2.74 2.06h-1.68c-.61 0-.88-.21-.88-.71v-3.76h2.28c.88 0 1.35.5 1.48 1.43h.36v-3.65h-.38c-.06 1.01-.58 1.51-1.37 1.51h-2.36V11.9c0-.39.25-.47.58-.47h2.03c1.26 0 1.7.52 1.98 1.7h.36l-.08-2.39h-7.6v.39c.89 0 1.29.42 1.29 1.37v7.05c0 .95-.4 1.37-1.29 1.37v.38h7.79l.69-2.74h-.46zM120.28 20.44c-.24-.3-2.58-3.51-3.11-4.22 1.89-.4 2.56-1.36 2.56-2.75 0-1.64-1.23-2.74-3.48-2.74h-4.23v.39c.89 0 1.29.42 1.29 1.37v7.05c0 .95-.4 1.37-1.29 1.37v.38h4.09v-.38c-.89 0-1.29-.42-1.29-1.37v-3.1c.28 0 .55-.01.8-.02l3.43 4.88h2.31v-.33c-.39 0-.8-.2-1.08-.53zm-5.46-4.64v-3.57c0-.73.15-.9.96-.9 1.78 0 2.44.88 2.44 2.2 0 1.62-1.22 2.28-3.04 2.28-.14-.01-.25-.01-.36-.01zM87.84 12.48c0-.95.48-1.37 1.37-1.37v-.39h-4.26v.39c.89 0 1.37.42 1.37 1.37v7.05c0 .95-.49 1.37-1.37 1.37v.38h4.26v-.38c-.89 0-1.37-.42-1.37-1.37v-7.05zM94.82 11.11v-.39h-3.87v.39c.47 0 .96.3 1.29 1.1.33.79 3.82 9.25 3.82 9.25h.25s3.05-8.51 3.32-9.25c.27-.74.74-1.1 1.18-1.1v-.39h-2.99v.39c.66 0 1.02.36 1.02.82 0 .14-.04.29-.08.41-.06.16-2.22 6.23-2.22 6.23l-2.63-6.32c-.06-.14-.09-.32-.09-.47-.02-.41.33-.67 1-.67zM59.35 7.68c1.15 0 1.75.58 1.75 2.22v6.54c0 3.3 1.81 5.05 4.97 5.05 2.71 0 4.8-1.65 4.8-4.83V9.53c0-1.1.33-1.84 1.65-1.84V7.3h-4.17v.38c1.18 0 1.67.52 1.7 1.95.02 1.43.11 5.16.11 7.38 0 2.22-1.59 3.62-3.76 3.62-2.09 0-3.74-1.24-3.74-3.84v-7.3c0-1.08.42-1.81 1.65-1.81V7.3h-4.97v.38zM79.39 10.73v.39c.82 0 1.32.63 1.32 1.59v5.56l-5.49-7.53h-2.39v.39c.47 0 .85.22 1.05.47.02.03.13.18.3.41v7.09c0 1.21-.41 1.84-1.37 1.84v.38h3.37v-.38c-.82 0-1.32-.55-1.32-1.51v-6.49c2 2.7 6.31 8.55 6.31 8.55h.22v-8.51c0-1.35.55-1.84 1.37-1.84v-.39h-3.37z" class="st2"/><path d="M51.35 26.2c.15.06.28.14.39.25.11.11.2.23.26.36.08.17.12.35.12.54a1.246 1.246 0 0 1-.61 1.08 1.237 1.237 0 0 1-1.22 0c-.19-.11-.35-.26-.45-.46-.11-.19-.16-.4-.16-.62 0-.18.04-.35.11-.5.07-.15.16-.28.27-.38.11-.1.22-.18.35-.24.17-.07.33-.11.51-.11.13-.01.28.02.43.08zm.87.54a1.422 1.422 0 0 0-.73-.72c-.18-.08-.38-.13-.59-.13-.22 0-.43.05-.63.14a1.475 1.475 0 0 0-.82 1.32c0 .25.06.5.19.73.13.23.31.41.54.54.23.13.47.19.72.19.22 0 .44-.05.64-.15a1.52 1.52 0 0 0 .72-.77c.07-.18.1-.36.1-.54-.01-.21-.05-.41-.14-.61zm-1.37.81c.09 0 .16.01.21.04.05.03.08.06.1.1.02.04.03.11.04.21.01.14.02.22.03.24h.34a.982.982 0 0 1-.02-.21c0-.1-.01-.17-.02-.21-.01-.06-.04-.12-.06-.16a.346.346 0 0 0-.11-.1.93.93 0 0 0-.18-.06c.08-.01.14-.02.18-.04a.38.38 0 0 0 .22-.36c0-.08-.02-.16-.06-.22a.502.502 0 0 0-.14-.15.48.48 0 0 0-.22-.08c-.06-.01-.16-.02-.29-.02h-.58v1.61h.36v-.59h.2zm.19-.74c.06.02.1.04.13.08s.05.09.05.14c0 .05-.01.1-.04.14-.03.04-.07.07-.12.09-.05.02-.11.03-.17.03h-.24v-.51h.24c.04.01.09.01.15.03zM45.38 21.45l-8.49-14.1h2.34V0H25.11v7.35h2.33l-3.24 5.39-3.24-5.39h2.34V0H9.17v7.35h2.34l-8.48 14.1H0v7.35h14.4v-7.35h-2.58l4.42-7.34 1.71 2.84h-1.64v7.35H32.1v-7.35h-1.65l1.72-2.84 4.42 7.34H34v7.35h14.4v-7.35z" class="st3"/></svg>
